<svg xmlns="http://www.w3.org/2000/svg" width="39.68" height="35" viewBox="0 0 39.68 35"><rect class="svg__rect" x="0" y="0" width="39.68" height="35" fill="#FFFFFF"/><rect class="svg__rect" x="39.68" y="0" width="0" height="35" fill="#389AD5"/><path class="svg__text" d="M13.97 18.51L13.97 18.51L13.97 17.03Q13.97 15.19 14.65 14.27Q15.34 13.35 16.75 13.35L16.75 13.35Q18.15 13.35 18.84 14.25Q19.53 15.14 19.55 16.93L19.55 16.93L19.55 18.41Q19.55 20.25 18.86 21.18Q18.17 22.12 16.77 22.12L16.77 22.12Q15.38 22.12 14.68 21.21Q13.98 20.29 13.97 18.51ZM15.38 16.68L15.38 18.61Q15.38 19.81 15.72 20.39Q16.05 20.98 16.77 20.98L16.77 20.98Q17.45 20.98 17.78 20.44Q18.11 19.90 18.13 18.74L18.13 18.74L18.13 16.81Q18.13 15.61 17.80 15.05Q17.47 14.49 16.75 14.49L16.75 14.49Q16.06 14.49 15.73 15.02Q15.40 15.55 15.38 16.68L15.38 16.68ZM26.23 15.15L24.14 15.87L24.14 14.66L27.47 13.44L27.65 13.44L27.65 22L26.23 22L26.23 15.15Z" fill="#000000"/><path class="svg__text" d="" fill="#FFFFFF" x="52.68"/></svg>