<svg xmlns="http://www.w3.org/2000/svg" width="41.56" height="35" viewBox="0 0 41.56 35"><rect class="svg__rect" x="0" y="0" width="41.56" height="35" fill="#FFFFFF"/><rect class="svg__rect" x="41.56" y="0" width="0" height="35" fill="#389AD5"/><path class="svg__text" d="M13.97 18.51L13.97 18.51L13.97 17.03Q13.97 15.19 14.65 14.27Q15.34 13.35 16.75 13.35L16.75 13.35Q18.15 13.35 18.84 14.25Q19.53 15.14 19.55 16.93L19.55 16.93L19.55 18.41Q19.55 20.25 18.86 21.18Q18.17 22.12 16.77 22.12L16.77 22.12Q15.38 22.12 14.68 21.21Q13.98 20.29 13.97 18.51ZM15.38 16.68L15.38 18.61Q15.38 19.81 15.72 20.39Q16.05 20.98 16.77 20.98L16.77 20.98Q17.45 20.98 17.78 20.44Q18.11 19.90 18.13 18.74L18.13 18.74L18.13 16.81Q18.13 15.61 17.80 15.05Q17.47 14.49 16.75 14.49L16.75 14.49Q16.06 14.49 15.73 15.02Q15.40 15.55 15.38 16.68L15.38 16.68ZM25.06 16.07L23.63 16.07Q23.63 15.29 23.99 14.67Q24.34 14.04 25.00 13.70Q25.66 13.35 26.52 13.35L26.52 13.35Q27.76 13.35 28.48 13.98Q29.20 14.60 29.20 15.70L29.20 15.70Q29.20 16.34 28.84 17.04Q28.48 17.74 27.66 18.63L27.66 18.63L25.57 20.86L29.53 20.86L29.53 22L23.80 22L23.80 21.02L26.64 17.92Q27.25 17.24 27.52 16.78Q27.78 16.32 27.78 15.85L27.78 15.85Q27.78 15.24 27.43 14.87Q27.09 14.49 26.51 14.49L26.51 14.49Q25.82 14.49 25.44 14.92Q25.06 15.34 25.06 16.07L25.06 16.07Z" fill="#000000"/><path class="svg__text" d="" fill="#FFFFFF" x="54.56"/></svg>