<svg xmlns="http://www.w3.org/2000/svg" width="41.53" height="35" viewBox="0 0 41.53 35"><rect class="svg__rect" x="0" y="0" width="41.53" height="35" fill="#FFFFFF"/><rect class="svg__rect" x="41.53" y="0" width="0" height="35" fill="#389AD5"/><path class="svg__text" d="M13.97 18.51L13.97 18.51L13.97 17.03Q13.97 15.19 14.65 14.27Q15.34 13.35 16.75 13.35L16.75 13.35Q18.15 13.35 18.84 14.25Q19.53 15.14 19.55 16.93L19.55 16.93L19.55 18.41Q19.55 20.25 18.86 21.18Q18.17 22.12 16.77 22.12L16.77 22.12Q15.38 22.12 14.68 21.21Q13.98 20.29 13.97 18.51ZM15.38 16.68L15.38 18.61Q15.38 19.81 15.72 20.39Q16.05 20.98 16.77 20.98L16.77 20.98Q17.45 20.98 17.78 20.44Q18.11 19.90 18.13 18.74L18.13 18.74L18.13 16.81Q18.13 15.61 17.80 15.05Q17.47 14.49 16.75 14.49L16.75 14.49Q16.06 14.49 15.73 15.02Q15.40 15.55 15.38 16.68L15.38 16.68ZM23.91 19.70L23.91 19.70L25.29 19.70Q25.37 20.32 25.74 20.65Q26.10 20.98 26.69 20.98L26.69 20.98Q27.34 20.98 27.71 20.51Q28.07 20.04 28.07 19.23L28.07 19.23Q28.07 18.46 27.67 18.00Q27.27 17.55 26.56 17.55L26.56 17.55Q26.17 17.55 25.90 17.65Q25.63 17.75 25.31 18.05L25.31 18.05L24.18 17.77L24.64 13.47L29.22 13.47L29.22 14.70L25.82 14.70L25.59 16.74Q26.18 16.40 26.93 16.40L26.93 16.40Q28.14 16.40 28.82 17.18Q29.50 17.96 29.50 19.28L29.50 19.28Q29.50 20.58 28.75 21.35Q28.00 22.12 26.69 22.12L26.69 22.12Q25.52 22.12 24.75 21.45Q23.98 20.79 23.91 19.70Z" fill="#000000"/><path class="svg__text" d="" fill="#FFFFFF" x="54.53"/></svg>