<svg xmlns="http://www.w3.org/2000/svg" width="41.29" height="35" viewBox="0 0 41.29 35"><rect class="svg__rect" x="0" y="0" width="41.29" height="35" fill="#FFFFFF"/><rect class="svg__rect" x="41.29" y="0" width="0" height="35" fill="#389AD5"/><path class="svg__text" d="M13.97 18.51L13.97 18.51L13.97 17.03Q13.97 15.19 14.65 14.27Q15.34 13.35 16.75 13.35L16.75 13.35Q18.15 13.35 18.84 14.25Q19.53 15.14 19.55 16.93L19.55 16.93L19.55 18.41Q19.55 20.25 18.86 21.18Q18.17 22.12 16.77 22.12L16.77 22.12Q15.38 22.12 14.68 21.21Q13.98 20.29 13.97 18.51ZM15.38 16.68L15.38 18.61Q15.38 19.81 15.72 20.39Q16.05 20.98 16.77 20.98L16.77 20.98Q17.45 20.98 17.78 20.44Q18.11 19.90 18.13 18.74L18.13 18.74L18.13 16.81Q18.13 15.61 17.80 15.05Q17.47 14.49 16.75 14.49L16.75 14.49Q16.06 14.49 15.73 15.02Q15.40 15.55 15.38 16.68L15.38 16.68ZM23.70 16.33L23.70 16.33Q23.70 15.48 24.04 14.80Q24.38 14.11 25.01 13.73Q25.64 13.35 26.46 13.35L26.46 13.35Q27.75 13.35 28.51 14.31Q29.26 15.27 29.26 16.88L29.26 16.88L29.26 17.28Q29.26 19.59 28.22 20.80Q27.18 22.02 25.11 22.04L25.11 22.04L24.94 22.04L24.94 20.86L25.14 20.86Q26.40 20.84 27.08 20.25Q27.75 19.66 27.83 18.43L27.83 18.43Q27.12 19.19 26.16 19.19L26.16 19.19Q25.04 19.19 24.37 18.40Q23.70 17.61 23.70 16.33ZM25.11 16.29L25.11 16.29Q25.11 17.09 25.48 17.58Q25.85 18.07 26.46 18.07L26.46 18.07Q26.89 18.07 27.27 17.83Q27.64 17.58 27.85 17.15L27.85 17.15L27.85 16.59Q27.85 15.65 27.46 15.07Q27.07 14.50 26.46 14.50Q25.84 14.50 25.48 15.01Q25.11 15.51 25.11 16.29Z" fill="#000000"/><path class="svg__text" d="" fill="#FFFFFF" x="54.29"/></svg>