<svg xmlns="http://www.w3.org/2000/svg" width="41.03" height="35" viewBox="0 0 41.03 35"><rect class="svg__rect" x="0" y="0" width="41.03" height="35" fill="#FFFFFF"/><rect class="svg__rect" x="41.03" y="0" width="0" height="35" fill="#389AD5"/><path class="svg__text" d="M16.43 15.15L14.33 15.87L14.33 14.66L17.66 13.44L17.84 13.44L17.84 22L16.43 22L16.43 15.15ZM23.77 18.51L23.77 18.51L23.77 17.03Q23.77 15.19 24.46 14.27Q25.15 13.35 26.56 13.35L26.56 13.35Q27.96 13.35 28.65 14.25Q29.34 15.14 29.36 16.93L29.36 16.93L29.36 18.41Q29.36 20.25 28.67 21.18Q27.98 22.12 26.57 22.12L26.57 22.12Q25.19 22.12 24.49 21.21Q23.79 20.29 23.77 18.51ZM25.19 16.68L25.19 18.61Q25.19 19.81 25.53 20.39Q25.86 20.98 26.57 20.98L26.57 20.98Q27.26 20.98 27.59 20.44Q27.92 19.90 27.93 18.74L27.93 18.74L27.93 16.81Q27.93 15.61 27.61 15.05Q27.28 14.49 26.56 14.49L26.56 14.49Q25.87 14.49 25.54 15.02Q25.21 15.55 25.19 16.68L25.19 16.68Z" fill="#000000"/><path class="svg__text" d="" fill="#FFFFFF" x="54.03"/></svg>