<svg xmlns="http://www.w3.org/2000/svg" width="41.2" height="35" viewBox="0 0 41.2 35"><rect class="svg__rect" x="0" y="0" width="41.2" height="35" fill="#FFFFFF"/><rect class="svg__rect" x="41.2" y="0" width="0" height="35" fill="#389AD5"/><path class="svg__text" d="M16.43 15.15L14.33 15.87L14.33 14.66L17.66 13.44L17.84 13.44L17.84 22L16.43 22L16.43 15.15ZM25.06 16.07L23.63 16.07Q23.63 15.29 23.99 14.67Q24.34 14.04 25.00 13.70Q25.66 13.35 26.52 13.35L26.52 13.35Q27.76 13.35 28.48 13.98Q29.20 14.60 29.20 15.70L29.20 15.70Q29.20 16.34 28.84 17.04Q28.48 17.74 27.66 18.63L27.66 18.63L25.57 20.86L29.53 20.86L29.53 22L23.80 22L23.80 21.02L26.64 17.92Q27.25 17.24 27.52 16.78Q27.78 16.32 27.78 15.85L27.78 15.85Q27.78 15.24 27.43 14.87Q27.09 14.49 26.51 14.49L26.51 14.49Q25.82 14.49 25.44 14.92Q25.06 15.34 25.06 16.07L25.06 16.07Z" fill="#000000"/><path class="svg__text" d="" fill="#FFFFFF" x="54.2"/></svg>