<svg xmlns="http://www.w3.org/2000/svg" width="41.34" height="35" viewBox="0 0 41.34 35"><rect class="svg__rect" x="0" y="0" width="41.34" height="35" fill="#FFFFFF"/><rect class="svg__rect" x="41.34" y="0" width="0" height="35" fill="#389AD5"/><path class="svg__text" d="M16.43 15.15L14.33 15.87L14.33 14.66L17.66 13.44L17.84 13.44L17.84 22L16.43 22L16.43 15.15ZM23.50 20.10L23.46 19.23L27.14 13.47L28.61 13.47L28.61 18.96L29.67 18.96L29.67 20.10L28.61 20.10L28.61 22L27.19 22L27.19 20.10L23.50 20.10ZM27.08 15.58L24.96 18.96L27.19 18.96L27.19 15.40L27.08 15.58Z" fill="#000000"/><path class="svg__text" d="" fill="#FFFFFF" x="54.34"/></svg>