<svg xmlns="http://www.w3.org/2000/svg" width="41.17" height="35" viewBox="0 0 41.17 35"><rect class="svg__rect" x="0" y="0" width="41.17" height="35" fill="#FFFFFF"/><rect class="svg__rect" x="41.17" y="0" width="0" height="35" fill="#389AD5"/><path class="svg__text" d="M16.43 15.15L14.33 15.87L14.33 14.66L17.66 13.44L17.84 13.44L17.84 22L16.43 22L16.43 15.15ZM23.91 19.70L23.91 19.70L25.29 19.70Q25.37 20.32 25.74 20.65Q26.10 20.98 26.69 20.98L26.69 20.98Q27.34 20.98 27.71 20.51Q28.07 20.04 28.07 19.23L28.07 19.23Q28.07 18.46 27.67 18.00Q27.27 17.55 26.56 17.55L26.56 17.55Q26.17 17.55 25.90 17.65Q25.63 17.75 25.31 18.05L25.31 18.05L24.18 17.77L24.64 13.47L29.22 13.47L29.22 14.70L25.82 14.70L25.59 16.74Q26.18 16.40 26.93 16.40L26.93 16.40Q28.14 16.40 28.82 17.18Q29.50 17.96 29.50 19.28L29.50 19.28Q29.50 20.58 28.75 21.35Q28.00 22.12 26.69 22.12L26.69 22.12Q25.52 22.12 24.75 21.45Q23.98 20.79 23.91 19.70Z" fill="#000000"/><path class="svg__text" d="" fill="#FFFFFF" x="54.17"/></svg>