<svg xmlns="http://www.w3.org/2000/svg" width="41.15" height="35" viewBox="0 0 41.15 35"><rect class="svg__rect" x="0" y="0" width="41.15" height="35" fill="#FFFFFF"/><rect class="svg__rect" x="41.15" y="0" width="0" height="35" fill="#389AD5"/><path class="svg__text" d="M16.43 15.15L14.33 15.87L14.33 14.66L17.66 13.44L17.84 13.44L17.84 22L16.43 22L16.43 15.15ZM23.84 18.70L23.84 18.70L23.84 18.21Q23.84 15.97 24.94 14.70Q26.03 13.43 28.08 13.43L28.08 13.43L28.23 13.43L28.23 14.61L28.05 14.61Q26.86 14.62 26.14 15.26Q25.43 15.90 25.29 17.07L25.29 17.07Q25.98 16.35 27.04 16.35L27.04 16.35Q28.17 16.35 28.83 17.15Q29.48 17.95 29.48 19.21L29.48 19.21Q29.48 20.51 28.72 21.31Q27.95 22.12 26.71 22.12L26.71 22.12Q25.43 22.12 24.64 21.17Q23.84 20.23 23.84 18.70ZM25.27 18.47L25.27 18.90Q25.27 19.85 25.67 20.41Q26.06 20.97 26.70 20.97Q27.33 20.97 27.70 20.49Q28.07 20.02 28.07 19.25Q28.07 18.47 27.69 17.99Q27.32 17.50 26.70 17.50L26.70 17.50Q26.23 17.50 25.84 17.76Q25.45 18.03 25.27 18.47L25.27 18.47Z" fill="#000000"/><path class="svg__text" d="" fill="#FFFFFF" x="54.15"/></svg>