<svg xmlns="http://www.w3.org/2000/svg" width="40.93" height="35" viewBox="0 0 40.93 35"><rect class="svg__rect" x="0" y="0" width="40.93" height="35" fill="#FFFFFF"/><rect class="svg__rect" x="40.93" y="0" width="0" height="35" fill="#389AD5"/><path class="svg__text" d="M16.43 15.15L14.33 15.87L14.33 14.66L17.66 13.44L17.84 13.44L17.84 22L16.43 22L16.43 15.15ZM23.70 16.33L23.70 16.33Q23.70 15.48 24.04 14.80Q24.38 14.11 25.01 13.73Q25.64 13.35 26.46 13.35L26.46 13.35Q27.75 13.35 28.51 14.31Q29.26 15.27 29.26 16.88L29.26 16.88L29.26 17.28Q29.26 19.59 28.22 20.80Q27.18 22.02 25.11 22.04L25.11 22.04L24.94 22.04L24.94 20.86L25.14 20.86Q26.40 20.84 27.08 20.25Q27.75 19.66 27.83 18.43L27.83 18.43Q27.12 19.19 26.16 19.19L26.16 19.19Q25.04 19.19 24.37 18.40Q23.70 17.61 23.70 16.33ZM25.11 16.29L25.11 16.29Q25.11 17.09 25.48 17.58Q25.85 18.07 26.46 18.07L26.46 18.07Q26.89 18.07 27.27 17.83Q27.64 17.58 27.85 17.15L27.85 17.15L27.85 16.59Q27.85 15.65 27.46 15.07Q27.07 14.50 26.46 14.50Q25.84 14.50 25.48 15.01Q25.11 15.51 25.11 16.29Z" fill="#000000"/><path class="svg__text" d="" fill="#FFFFFF" x="53.93"/></svg>