<svg xmlns="http://www.w3.org/2000/svg" width="39.83" height="35" viewBox="0 0 39.83 35"><rect class="svg__rect" x="0" y="0" width="39.83" height="35" fill="#FFFFFF"/><rect class="svg__rect" x="39.83" y="0" width="0" height="35" fill="#389AD5"/><path class="svg__text" d="M15.25 16.07L13.82 16.07Q13.82 15.29 14.18 14.67Q14.53 14.04 15.19 13.70Q15.85 13.35 16.71 13.35L16.71 13.35Q17.96 13.35 18.67 13.98Q19.39 14.60 19.39 15.70L19.39 15.70Q19.39 16.34 19.03 17.04Q18.67 17.74 17.85 18.63L17.85 18.63L15.76 20.86L19.73 20.86L19.73 22L13.99 22L13.99 21.02L16.83 17.92Q17.45 17.24 17.71 16.78Q17.97 16.32 17.97 15.85L17.97 15.85Q17.97 15.24 17.62 14.87Q17.28 14.49 16.70 14.49L16.70 14.49Q16.01 14.49 15.63 14.92Q15.25 15.34 15.25 16.07L15.25 16.07ZM26.23 15.15L24.14 15.87L24.14 14.66L27.47 13.44L27.65 13.44L27.65 22L26.23 22L26.23 15.15Z" fill="#000000"/><path class="svg__text" d="" fill="#FFFFFF" x="52.83"/></svg>