<svg xmlns="http://www.w3.org/2000/svg" width="41.71" height="35" viewBox="0 0 41.71 35"><rect class="svg__rect" x="0" y="0" width="41.71" height="35" fill="#FFFFFF"/><rect class="svg__rect" x="41.71" y="0" width="0" height="35" fill="#389AD5"/><path class="svg__text" d="M15.25 16.07L13.82 16.07Q13.82 15.29 14.18 14.67Q14.53 14.04 15.19 13.70Q15.85 13.35 16.71 13.35L16.71 13.35Q17.96 13.35 18.67 13.98Q19.39 14.60 19.39 15.70L19.39 15.70Q19.39 16.34 19.03 17.04Q18.67 17.74 17.85 18.63L17.85 18.63L15.76 20.86L19.73 20.86L19.73 22L13.99 22L13.99 21.02L16.83 17.92Q17.45 17.24 17.71 16.78Q17.97 16.32 17.97 15.85L17.97 15.85Q17.97 15.24 17.62 14.87Q17.28 14.49 16.70 14.49L16.70 14.49Q16.01 14.49 15.63 14.92Q15.25 15.34 15.25 16.07L15.25 16.07ZM25.06 16.07L23.63 16.07Q23.63 15.29 23.99 14.67Q24.34 14.04 25.00 13.70Q25.66 13.35 26.52 13.35L26.52 13.35Q27.76 13.35 28.48 13.98Q29.20 14.60 29.20 15.70L29.20 15.70Q29.20 16.34 28.84 17.04Q28.48 17.74 27.66 18.63L27.66 18.63L25.57 20.86L29.53 20.86L29.53 22L23.80 22L23.80 21.02L26.64 17.92Q27.25 17.24 27.52 16.78Q27.78 16.32 27.78 15.85L27.78 15.85Q27.78 15.24 27.43 14.87Q27.09 14.49 26.51 14.49L26.51 14.49Q25.82 14.49 25.44 14.92Q25.06 15.34 25.06 16.07L25.06 16.07Z" fill="#000000"/><path class="svg__text" d="" fill="#FFFFFF" x="54.71"/></svg>