<svg xmlns="http://www.w3.org/2000/svg" width="41.46" height="35" viewBox="0 0 41.46 35"><rect class="svg__rect" x="0" y="0" width="41.46" height="35" fill="#FFFFFF"/><rect class="svg__rect" x="41.46" y="0" width="0" height="35" fill="#389AD5"/><path class="svg__text" d="M15.25 16.07L13.82 16.07Q13.82 15.29 14.18 14.67Q14.53 14.04 15.19 13.70Q15.85 13.35 16.71 13.35L16.71 13.35Q17.96 13.35 18.67 13.98Q19.39 14.60 19.39 15.70L19.39 15.70Q19.39 16.34 19.03 17.04Q18.67 17.74 17.85 18.63L17.85 18.63L15.76 20.86L19.73 20.86L19.73 22L13.99 22L13.99 21.02L16.83 17.92Q17.45 17.24 17.71 16.78Q17.97 16.32 17.97 15.85L17.97 15.85Q17.97 15.24 17.62 14.87Q17.28 14.49 16.70 14.49L16.70 14.49Q16.01 14.49 15.63 14.92Q15.25 15.34 15.25 16.07L15.25 16.07ZM23.62 19.71L23.62 19.71L25.05 19.71Q25.05 20.28 25.42 20.63Q25.80 20.98 26.44 20.98L26.44 20.98Q27.10 20.98 27.48 20.63Q27.86 20.28 27.86 19.61L27.86 19.61Q27.86 18.94 27.47 18.57Q27.07 18.21 26.28 18.21L26.28 18.21L25.44 18.21L25.44 17.08L26.31 17.08Q26.97 17.08 27.35 16.74Q27.73 16.41 27.73 15.78L27.73 15.78Q27.73 15.17 27.42 14.83Q27.10 14.49 26.44 14.49L26.44 14.49Q25.87 14.49 25.50 14.83Q25.13 15.16 25.13 15.69L25.13 15.69L23.70 15.69Q23.70 15.03 24.05 14.49Q24.40 13.96 25.02 13.65Q25.65 13.35 26.42 13.35L26.42 13.35Q27.70 13.35 28.43 13.99Q29.16 14.63 29.16 15.78L29.16 15.78Q29.16 16.35 28.79 16.86Q28.43 17.37 27.85 17.62L27.85 17.62Q28.55 17.86 28.92 18.38Q29.28 18.89 29.28 19.61L29.28 19.61Q29.28 20.76 28.49 21.44Q27.71 22.12 26.42 22.12L26.42 22.12Q25.19 22.12 24.41 21.46Q23.62 20.80 23.62 19.71Z" fill="#000000"/><path class="svg__text" d="" fill="#FFFFFF" x="54.46"/></svg>