<svg xmlns="http://www.w3.org/2000/svg" width="41.68" height="35" viewBox="0 0 41.68 35"><rect class="svg__rect" x="0" y="0" width="41.68" height="35" fill="#FFFFFF"/><rect class="svg__rect" x="41.68" y="0" width="0" height="35" fill="#389AD5"/><path class="svg__text" d="M15.25 16.07L13.82 16.07Q13.82 15.29 14.18 14.67Q14.53 14.04 15.19 13.70Q15.85 13.35 16.71 13.35L16.71 13.35Q17.96 13.35 18.67 13.98Q19.39 14.60 19.39 15.70L19.39 15.70Q19.39 16.34 19.03 17.04Q18.67 17.74 17.85 18.63L17.85 18.63L15.76 20.86L19.73 20.86L19.73 22L13.99 22L13.99 21.02L16.83 17.92Q17.45 17.24 17.71 16.78Q17.97 16.32 17.97 15.85L17.97 15.85Q17.97 15.24 17.62 14.87Q17.28 14.49 16.70 14.49L16.70 14.49Q16.01 14.49 15.63 14.92Q15.25 15.34 15.25 16.07L15.25 16.07ZM23.91 19.70L23.91 19.70L25.29 19.70Q25.37 20.32 25.74 20.65Q26.10 20.98 26.69 20.98L26.69 20.98Q27.34 20.98 27.71 20.51Q28.07 20.04 28.07 19.23L28.07 19.23Q28.07 18.46 27.67 18.00Q27.27 17.55 26.56 17.55L26.56 17.55Q26.17 17.55 25.90 17.65Q25.63 17.75 25.31 18.05L25.31 18.05L24.18 17.77L24.64 13.47L29.22 13.47L29.22 14.70L25.82 14.70L25.59 16.74Q26.18 16.40 26.93 16.40L26.93 16.40Q28.14 16.40 28.82 17.18Q29.50 17.96 29.50 19.28L29.50 19.28Q29.50 20.58 28.75 21.35Q28.00 22.12 26.69 22.12L26.69 22.12Q25.52 22.12 24.75 21.45Q23.98 20.79 23.91 19.70Z" fill="#000000"/><path class="svg__text" d="" fill="#FFFFFF" x="54.68"/></svg>