<svg xmlns="http://www.w3.org/2000/svg" width="41.66" height="35" viewBox="0 0 41.66 35"><rect class="svg__rect" x="0" y="0" width="41.66" height="35" fill="#FFFFFF"/><rect class="svg__rect" x="41.66" y="0" width="0" height="35" fill="#389AD5"/><path class="svg__text" d="M15.25 16.07L13.82 16.07Q13.82 15.29 14.18 14.67Q14.53 14.04 15.19 13.70Q15.85 13.35 16.71 13.35L16.71 13.35Q17.96 13.35 18.67 13.98Q19.39 14.60 19.39 15.70L19.39 15.70Q19.39 16.34 19.03 17.04Q18.67 17.74 17.85 18.63L17.85 18.63L15.76 20.86L19.73 20.86L19.73 22L13.99 22L13.99 21.02L16.83 17.92Q17.45 17.24 17.71 16.78Q17.97 16.32 17.97 15.85L17.97 15.85Q17.97 15.24 17.62 14.87Q17.28 14.49 16.70 14.49L16.70 14.49Q16.01 14.49 15.63 14.92Q15.25 15.34 15.25 16.07L15.25 16.07ZM23.84 18.70L23.84 18.70L23.84 18.21Q23.84 15.97 24.94 14.70Q26.03 13.43 28.08 13.43L28.08 13.43L28.23 13.43L28.23 14.61L28.05 14.61Q26.86 14.62 26.14 15.26Q25.43 15.90 25.29 17.07L25.29 17.07Q25.98 16.35 27.04 16.35L27.04 16.35Q28.17 16.35 28.83 17.15Q29.48 17.95 29.48 19.21L29.48 19.21Q29.48 20.51 28.72 21.31Q27.95 22.12 26.71 22.12L26.71 22.12Q25.43 22.12 24.64 21.17Q23.84 20.23 23.84 18.70ZM25.27 18.47L25.27 18.90Q25.27 19.85 25.67 20.41Q26.06 20.97 26.70 20.97Q27.33 20.97 27.70 20.49Q28.07 20.02 28.07 19.25Q28.07 18.47 27.69 17.99Q27.32 17.50 26.70 17.50L26.70 17.50Q26.23 17.50 25.84 17.76Q25.45 18.03 25.27 18.47L25.27 18.47Z" fill="#000000"/><path class="svg__text" d="" fill="#FFFFFF" x="54.66"/></svg>