<svg xmlns="http://www.w3.org/2000/svg" width="41.54" height="35" viewBox="0 0 41.54 35"><rect class="svg__rect" x="0" y="0" width="41.54" height="35" fill="#FFFFFF"/><rect class="svg__rect" x="41.54" y="0" width="0" height="35" fill="#389AD5"/><path class="svg__text" d="M15.25 16.07L13.82 16.07Q13.82 15.29 14.18 14.67Q14.53 14.04 15.19 13.70Q15.85 13.35 16.71 13.35L16.71 13.35Q17.96 13.35 18.67 13.98Q19.39 14.60 19.39 15.70L19.39 15.70Q19.39 16.34 19.03 17.04Q18.67 17.74 17.85 18.63L17.85 18.63L15.76 20.86L19.73 20.86L19.73 22L13.99 22L13.99 21.02L16.83 17.92Q17.45 17.24 17.71 16.78Q17.97 16.32 17.97 15.85L17.97 15.85Q17.97 15.24 17.62 14.87Q17.28 14.49 16.70 14.49L16.70 14.49Q16.01 14.49 15.63 14.92Q15.25 15.34 15.25 16.07L15.25 16.07ZM23.77 19.67L23.77 19.67Q23.77 18.99 24.13 18.44Q24.49 17.90 25.15 17.61L25.15 17.61Q24.60 17.32 24.28 16.83Q23.96 16.35 23.96 15.72L23.96 15.72Q23.96 14.63 24.66 13.99Q25.37 13.35 26.56 13.35L26.56 13.35Q27.76 13.35 28.47 13.99Q29.17 14.63 29.17 15.72L29.17 15.72Q29.17 16.35 28.85 16.83Q28.53 17.32 27.97 17.61L27.97 17.61Q28.64 17.92 29.00 18.46Q29.36 18.99 29.36 19.67L29.36 19.67Q29.36 20.80 28.60 21.46Q27.83 22.12 26.57 22.12L26.57 22.12Q25.30 22.12 24.53 21.46Q23.77 20.79 23.77 19.67ZM25.19 19.60L25.19 19.60Q25.19 20.23 25.56 20.61Q25.92 20.98 26.57 20.98Q27.21 20.98 27.57 20.62Q27.93 20.25 27.93 19.60L27.93 19.60Q27.93 18.97 27.56 18.58Q27.18 18.19 26.56 18.19Q25.94 18.19 25.56 18.58Q25.19 18.96 25.19 19.60ZM25.39 15.77L25.39 15.77Q25.39 16.36 25.70 16.70Q26.02 17.05 26.57 17.05Q27.11 17.05 27.43 16.70Q27.75 16.36 27.75 15.77L27.75 15.77Q27.75 15.21 27.43 14.85Q27.11 14.49 26.56 14.49Q26.02 14.49 25.70 14.84Q25.39 15.18 25.39 15.77Z" fill="#000000"/><path class="svg__text" d="" fill="#FFFFFF" x="54.54"/></svg>