<svg xmlns="http://www.w3.org/2000/svg" width="39.839999999999996" height="35" viewBox="0 0 39.839999999999996 35"><rect class="svg__rect" x="0" y="0" width="39.839999999999996" height="35" fill="#FFFFFF"/><rect class="svg__rect" x="39.839999999999996" y="0" width="0" height="35" fill="#389AD5"/><path class="svg__text" d="M13.81 19.71L13.81 19.71L15.24 19.71Q15.24 20.28 15.61 20.63Q15.99 20.98 16.63 20.98L16.63 20.98Q17.29 20.98 17.67 20.63Q18.06 20.28 18.06 19.61L18.06 19.61Q18.06 18.94 17.66 18.57Q17.26 18.21 16.47 18.21L16.47 18.21L15.64 18.21L15.64 17.08L16.50 17.08Q17.16 17.08 17.54 16.74Q17.93 16.41 17.93 15.78L17.93 15.78Q17.93 15.17 17.61 14.83Q17.29 14.49 16.63 14.49L16.63 14.49Q16.06 14.49 15.69 14.83Q15.32 15.16 15.32 15.69L15.32 15.69L13.89 15.69Q13.89 15.03 14.24 14.49Q14.59 13.96 15.22 13.65Q15.84 13.35 16.61 13.35L16.61 13.35Q17.89 13.35 18.62 13.99Q19.35 14.63 19.35 15.78L19.35 15.78Q19.35 16.35 18.98 16.86Q18.62 17.37 18.04 17.62L18.04 17.62Q18.74 17.86 19.11 18.38Q19.47 18.89 19.47 19.61L19.47 19.61Q19.47 20.76 18.68 21.44Q17.90 22.12 16.61 22.12L16.61 22.12Q15.38 22.12 14.60 21.46Q13.81 20.80 13.81 19.71ZM26.23 15.15L24.14 15.87L24.14 14.66L27.47 13.44L27.65 13.44L27.65 22L26.23 22L26.23 15.15Z" fill="#000000"/><path class="svg__text" d="" fill="#FFFFFF" x="52.839999999999996"/></svg>